<?xml version="1.0"?>
<svg xmlns="http://www.w3.org/2000/svg" id="outline" viewBox="0 0 512 512" width="512" height="512"><path d="M121.31885,450.16064A36.16228,36.16228,0,0,0,156.16113,496H355.83887a36.16115,36.16115,0,0,0,34.84179-45.83984L312.36182,168.2124l15.15283-45.45849,15.91308-39.78272a7.9995,7.9995,0,0,0-3.45849-9.917L286.62305,42.57031l-7.03369-21.1001A8.00011,8.00011,0,0,0,272,16H240a8.00011,8.00011,0,0,0-7.58936,5.47021L225.377,42.57031,172.03076,73.0542a7.9995,7.9995,0,0,0-3.45849,9.917l15.91308,39.78272,15.15283,45.45849ZM156.16113,480a20.1621,20.1621,0,0,1-19.42578-25.55762L215.708,170.14111a7.99935,7.99935,0,0,0-.11865-4.6709l-14.17627-42.52978L224,106l27.2002,20.3999a7.998,7.998,0,0,0,9.5996,0L288,106l22.58691,16.94043-14.17627,42.52978a7.97158,7.97158,0,0,0-.34912,1.73609l-.022-.0022-23.24365,232.437A88.95952,88.95952,0,0,1,184,480Zm83.60584,0a105.14193,105.14193,0,0,0,48.94983-78.76709l14.14471-141.44763,13.29181,177.223A39.99976,39.99976,0,0,1,276.26514,480ZM376,459.83887A20.1842,20.1842,0,0,1,355.83887,480H315.44824c.63593-.62231,1.26166-1.25684,1.86914-1.91162a56.17246,56.17246,0,0,0,14.791-42.27637L318.06055,248.50818l57.20361,205.93371A20.167,20.167,0,0,1,376,459.83887ZM195.551,107.337l-9.53785-23.84479L235.96924,54.9458a7.9982,7.9982,0,0,0,3.62012-4.416L245.76611,32h20.46778l6.17675,18.52979a7.9982,7.9982,0,0,0,3.62012,4.416l49.95606,28.54639L316.449,107.337,292.7998,89.6001a7.998,7.998,0,0,0-9.5996,0L256,110,228.7998,89.6001a7.998,7.998,0,0,0-9.5996,0Z"/></svg>
